<svg aria-roledescription="er" viewBox="0 0 487.5497741699219 295" style="max-width: 487.55px; background-color: white;" xmlns:xlink="http://www.w3.org/1999/xlink" xmlns="http://www.w3.org/2000/svg" width="100%" id="mermaid-0"><style>#mermaid-0{font-family:"trebuchet ms",verdana,arial,sans-serif;font-size:16px;fill:#000000;}#mermaid-0 .error-icon{fill:#552222;}#mermaid-0 .error-text{fill:#552222;stroke:#552222;}#mermaid-0 .edge-thickness-normal{stroke-width:2px;}#mermaid-0 .edge-thickness-thick{stroke-width:3.5px;}#mermaid-0 .edge-pattern-solid{stroke-dasharray:0;}#mermaid-0 .edge-pattern-dashed{stroke-dasharray:3;}#mermaid-0 .edge-pattern-dotted{stroke-dasharray:2;}#mermaid-0 .marker{fill:#000000;stroke:#000000;}#mermaid-0 .marker.cross{stroke:#000000;}#mermaid-0 svg{font-family:"trebuchet ms",verdana,arial,sans-serif;font-size:16px;}#mermaid-0 .entityBox{fill:#cde498;stroke:#13540c;}#mermaid-0 .attributeBoxOdd{fill:#ffffff;stroke:#13540c;}#mermaid-0 .attributeBoxEven{fill:#f2f2f2;stroke:#13540c;}#mermaid-0 .relationshipLabelBox{fill:hsl(78.1578947368, 58.4615384615%, 84.5098039216%);opacity:0.7;background-color:hsl(78.1578947368, 58.4615384615%, 84.5098039216%);}#mermaid-0 .relationshipLabelBox rect{opacity:0.5;}#mermaid-0 .relationshipLine{stroke:#000000;}#mermaid-0 .entityTitleText{text-anchor:middle;font-size:18px;fill:#000000;}#mermaid-0 :root{--mermaid-font-family:"trebuchet ms",verdana,arial,sans-serif;}</style><g/><defs><marker orient="auto" markerHeight="18" markerWidth="18" refY="9" refX="0" id="ONLY_ONE_START"><path d="M9,0 L9,18 M15,0 L15,18" fill="none" stroke="gray"/></marker></defs><defs><marker orient="auto" markerHeight="18" markerWidth="18" refY="9" refX="18" id="ONLY_ONE_END"><path d="M3,0 L3,18 M9,0 L9,18" fill="none" stroke="gray"/></marker></defs><defs><marker orient="auto" markerHeight="18" markerWidth="30" refY="9" refX="0" id="ZERO_OR_ONE_START"><circle r="6" cy="9" cx="21" fill="white" stroke="gray"/><path d="M9,0 L9,18" fill="none" stroke="gray"/></marker></defs><defs><marker orient="auto" markerHeight="18" markerWidth="30" refY="9" refX="30" id="ZERO_OR_ONE_END"><circle r="6" cy="9" cx="9" fill="white" stroke="gray"/><path d="M21,0 L21,18" fill="none" stroke="gray"/></marker></defs><defs><marker orient="auto" markerHeight="36" markerWidth="45" refY="18" refX="18" id="ONE_OR_MORE_START"><path d="M0,18 Q 18,0 36,18 Q 18,36 0,18 M42,9 L42,27" fill="none" stroke="gray"/></marker></defs><defs><marker orient="auto" markerHeight="36" markerWidth="45" refY="18" refX="27" id="ONE_OR_MORE_END"><path d="M3,9 L3,27 M9,18 Q27,0 45,18 Q27,36 9,18" fill="none" stroke="gray"/></marker></defs><defs><marker orient="auto" markerHeight="36" markerWidth="57" refY="18" refX="18" id="ZERO_OR_MORE_START"><circle r="6" cy="18" cx="48" fill="white" stroke="gray"/><path d="M0,18 Q18,0 36,18 Q18,36 0,18" fill="none" stroke="gray"/></marker></defs><defs><marker orient="auto" markerHeight="36" markerWidth="57" refY="18" refX="39" id="ZERO_OR_MORE_END"><circle r="6" cy="18" cx="9" fill="white" stroke="gray"/><path d="M21,18 Q39,0 57,18 Q39,36 21,18" fill="none" stroke="gray"/></marker></defs><path style="stroke: gray; fill: none;" marker-start="url(#ZERO_OR_MORE_START)" marker-end="url(#ONLY_ONE_END)" d="M114.23142914001099,76L108.14360478871357,86.16666666666667C102.05578043741617,96.33333333333333,89.88013173482136,116.66666666666667,83.79230738352396,137C77.70448303222656,157.33333333333334,77.70448303222656,177.66666666666666,77.70448303222656,187.83333333333334L77.70448303222656,198" class="er relationshipLine"/><path style="stroke: gray; fill: none;" marker-start="url(#ZERO_OR_MORE_START)" marker-end="url(#ONLY_ONE_END)" d="M158.82554557937348,76L172.88765532289912,86.16666666666667C186.9497650664248,96.33333333333333,215.07398455347607,116.66666666666667,238.72095134487404,135.16666666666666C262.367918136272,153.66666666666666,281.53763223201673,170.33333333333334,291.12248927988907,178.66666666666666L300.7073463277614,187" class="er relationshipLine"/><path style="stroke: gray; fill: none;" marker-start="url(#ZERO_OR_MORE_START)" marker-end="url(#ONLY_ONE_END)" d="M401.31539154052734,87L401.31539154052734,95.33333333333333C401.31539154052734,103.66666666666667,401.31539154052734,120.33333333333333,396.88276742705216,137C392.450143313577,153.66666666666666,383.5848950866266,170.33333333333334,379.1522709731515,178.66666666666666L374.7196468596763,187" class="er relationshipLine"/><g transform="translate(278.03243255615234,187 )" id="entity-habits-5ca3da66-4a33-4a98-8b22-9c448bee422f"><rect height="88" width="146.56591796875" y="0" x="0" class="er entityBox"/><text style="dominant-baseline: middle; text-anchor: middle; font-size: 12px;" transform="translate(73.282958984375,12)" y="0" x="0" id="text-entity-habits-5ca3da66-4a33-4a98-8b22-9c448bee422f" class="er entityLabel">habits</text><rect height="21" width="59.28125" y="24" x="0" class="er attributeBoxOdd"/><text style="dominant-baseline: middle; font-size: 10.2px;" transform="translate(5,34.5)" y="0" x="0" id="text-entity-habits-5ca3da66-4a33-4a98-8b22-9c448bee422f-attr-1-type" class="er entityLabel">String</text><rect height="21" width="64.14132690429688" y="24" x="59.28125" class="er attributeBoxOdd"/><text style="dominant-baseline: middle; font-size: 10.2px;" transform="translate(64.28125,34.5)" y="0" x="0" id="text-entity-habits-5ca3da66-4a33-4a98-8b22-9c448bee422f-attr-1-name" class="er entityLabel">id</text><rect height="21" width="23.143341064453125" y="24" x="123.42257690429688" class="er attributeBoxOdd"/><text style="dominant-baseline: middle; font-size: 10.2px;" transform="translate(128.42257690429688,34.5)" y="0" x="0" id="text-entity-habits-5ca3da66-4a33-4a98-8b22-9c448bee422f-attr-1-key" class="er entityLabel">PK</text><rect height="21" width="59.28125" y="45" x="0" class="er attributeBoxEven"/><text style="dominant-baseline: middle; font-size: 10.2px;" transform="translate(5,55.5)" y="0" x="0" id="text-entity-habits-5ca3da66-4a33-4a98-8b22-9c448bee422f-attr-2-type" class="er entityLabel">String</text><rect height="21" width="64.14132690429688" y="45" x="59.28125" class="er attributeBoxEven"/><text style="dominant-baseline: middle; font-size: 10.2px;" transform="translate(64.28125,55.5)" y="0" x="0" id="text-entity-habits-5ca3da66-4a33-4a98-8b22-9c448bee422f-attr-2-name" class="er entityLabel">title</text><rect height="21" width="23.143341064453125" y="45" x="123.42257690429688" class="er attributeBoxEven"/><text style="dominant-baseline: middle; font-size: 10.2px;" transform="translate(128.42257690429688,55.5)" y="0" x="0" id="text-entity-habits-5ca3da66-4a33-4a98-8b22-9c448bee422f-attr-2-key" class="er entityLabel"/><rect height="22" width="59.28125" y="66" x="0" class="er attributeBoxOdd"/><text style="dominant-baseline: middle; font-size: 10.2px;" transform="translate(5,77)" y="0" x="0" id="text-entity-habits-5ca3da66-4a33-4a98-8b22-9c448bee422f-attr-3-type" class="er entityLabel">DateTime</text><rect height="22" width="64.14132690429688" y="66" x="59.28125" class="er attributeBoxOdd"/><text style="dominant-baseline: middle; font-size: 10.2px;" transform="translate(64.28125,77)" y="0" x="0" id="text-entity-habits-5ca3da66-4a33-4a98-8b22-9c448bee422f-attr-3-name" class="er entityLabel">created_at</text><rect height="22" width="23.143341064453125" y="66" x="123.42257690429688" class="er attributeBoxOdd"/><text style="dominant-baseline: middle; font-size: 10.2px;" transform="translate(128.42257690429688,77)" y="0" x="0" id="text-entity-habits-5ca3da66-4a33-4a98-8b22-9c448bee422f-attr-3-key" class="er entityLabel"/></g><g transform="translate(20,198 )" id="entity-days-5a75a33d-e512-4854-834f-f4907a06c1b8"><rect height="66" width="115.40896606445312" y="0" x="0" class="er entityBox"/><text style="dominant-baseline: middle; text-anchor: middle; font-size: 12px;" transform="translate(57.70448303222656,12)" y="0" x="0" id="text-entity-days-5a75a33d-e512-4854-834f-f4907a06c1b8" class="er entityLabel">days</text><rect height="21" width="59.28125" y="24" x="0" class="er attributeBoxOdd"/><text style="dominant-baseline: middle; font-size: 10.2px;" transform="translate(5,34.5)" y="0" x="0" id="text-entity-days-5a75a33d-e512-4854-834f-f4907a06c1b8-attr-1-type" class="er entityLabel">String</text><rect height="21" width="32.984375" y="24" x="59.28125" class="er attributeBoxOdd"/><text style="dominant-baseline: middle; font-size: 10.2px;" transform="translate(64.28125,34.5)" y="0" x="0" id="text-entity-days-5a75a33d-e512-4854-834f-f4907a06c1b8-attr-1-name" class="er entityLabel">id</text><rect height="21" width="23.143341064453125" y="24" x="92.265625" class="er attributeBoxOdd"/><text style="dominant-baseline: middle; font-size: 10.2px;" transform="translate(97.265625,34.5)" y="0" x="0" id="text-entity-days-5a75a33d-e512-4854-834f-f4907a06c1b8-attr-1-key" class="er entityLabel">PK</text><rect height="21" width="59.28125" y="45" x="0" class="er attributeBoxEven"/><text style="dominant-baseline: middle; font-size: 10.2px;" transform="translate(5,55.5)" y="0" x="0" id="text-entity-days-5a75a33d-e512-4854-834f-f4907a06c1b8-attr-2-type" class="er entityLabel">DateTime</text><rect height="21" width="32.984375" y="45" x="59.28125" class="er attributeBoxEven"/><text style="dominant-baseline: middle; font-size: 10.2px;" transform="translate(64.28125,55.5)" y="0" x="0" id="text-entity-days-5a75a33d-e512-4854-834f-f4907a06c1b8-attr-2-name" class="er entityLabel">date</text><rect height="21" width="23.143341064453125" y="45" x="92.265625" class="er attributeBoxEven"/><text style="dominant-baseline: middle; font-size: 10.2px;" transform="translate(97.265625,55.5)" y="0" x="0" id="text-entity-days-5a75a33d-e512-4854-834f-f4907a06c1b8-attr-2-key" class="er entityLabel"/></g><g transform="translate(77.70448303222656,31 )" id="entity-dayhabits-59512734-2093-4d6b-aac9-6bb3c477a69d"><rect height="45" width="100" y="0" x="0" class="er entityBox"/><text style="dominant-baseline: middle; text-anchor: middle; font-size: 12px;" transform="translate(50,12)" y="0" x="0" id="text-entity-dayhabits-59512734-2093-4d6b-aac9-6bb3c477a69d" class="er entityLabel">day_habits</text><rect height="21" width="46.11888631184896" y="24" x="0" class="er attributeBoxOdd"/><text style="dominant-baseline: middle; font-size: 10.2px;" transform="translate(5,34.5)" y="0" x="0" id="text-entity-dayhabits-59512734-2093-4d6b-aac9-6bb3c477a69d-attr-1-type" class="er entityLabel">String</text><rect height="21" width="25.025136311848957" y="24" x="46.11888631184896" class="er attributeBoxOdd"/><text style="dominant-baseline: middle; font-size: 10.2px;" transform="translate(51.11888631184896,34.5)" y="0" x="0" id="text-entity-dayhabits-59512734-2093-4d6b-aac9-6bb3c477a69d-attr-1-name" class="er entityLabel">id</text><rect height="21" width="28.855977376302082" y="24" x="71.14402262369792" class="er attributeBoxOdd"/><text style="dominant-baseline: middle; font-size: 10.2px;" transform="translate(76.14402262369792,34.5)" y="0" x="0" id="text-entity-dayhabits-59512734-2093-4d6b-aac9-6bb3c477a69d-attr-1-key" class="er entityLabel">PK</text></g><g transform="translate(335.08101654052734,20 )" id="entity-habitweekdays-c8ba6411-2b00-4d48-a3a6-c21d7aa80c42"><rect height="67" width="132.46875" y="0" x="0" class="er entityBox"/><text style="dominant-baseline: middle; text-anchor: middle; font-size: 12px;" transform="translate(66.234375,12)" y="0" x="0" id="text-entity-habitweekdays-c8ba6411-2b00-4d48-a3a6-c21d7aa80c42" class="er entityLabel">habit_week_days</text><rect height="21" width="43.176177978515625" y="24" x="0" class="er attributeBoxOdd"/><text style="dominant-baseline: middle; font-size: 10.2px;" transform="translate(5,34.5)" y="0" x="0" id="text-entity-habitweekdays-c8ba6411-2b00-4d48-a3a6-c21d7aa80c42-attr-1-type" class="er entityLabel">String</text><rect height="21" width="63.379302978515625" y="24" x="43.176177978515625" class="er attributeBoxOdd"/><text style="dominant-baseline: middle; font-size: 10.2px;" transform="translate(48.176177978515625,34.5)" y="0" x="0" id="text-entity-habitweekdays-c8ba6411-2b00-4d48-a3a6-c21d7aa80c42-attr-1-name" class="er entityLabel">id</text><rect height="21" width="25.91326904296875" y="24" x="106.55548095703125" class="er attributeBoxOdd"/><text style="dominant-baseline: middle; font-size: 10.2px;" transform="translate(111.55548095703125,34.5)" y="0" x="0" id="text-entity-habitweekdays-c8ba6411-2b00-4d48-a3a6-c21d7aa80c42-attr-1-key" class="er entityLabel">PK</text><rect height="22" width="43.176177978515625" y="45" x="0" class="er attributeBoxEven"/><text style="dominant-baseline: middle; font-size: 10.2px;" transform="translate(5,56)" y="0" x="0" id="text-entity-habitweekdays-c8ba6411-2b00-4d48-a3a6-c21d7aa80c42-attr-2-type" class="er entityLabel">Int</text><rect height="22" width="63.379302978515625" y="45" x="43.176177978515625" class="er attributeBoxEven"/><text style="dominant-baseline: middle; font-size: 10.2px;" transform="translate(48.176177978515625,56)" y="0" x="0" id="text-entity-habitweekdays-c8ba6411-2b00-4d48-a3a6-c21d7aa80c42-attr-2-name" class="er entityLabel">week_day</text><rect height="22" width="25.91326904296875" y="45" x="106.55548095703125" class="er attributeBoxEven"/><text style="dominant-baseline: middle; font-size: 10.2px;" transform="translate(111.55548095703125,56)" y="0" x="0" id="text-entity-habitweekdays-c8ba6411-2b00-4d48-a3a6-c21d7aa80c42-attr-2-key" class="er entityLabel"/></g><rect height="14" width="22.078125" y="126.75401306152344" x="73.77562713623047" class="er relationshipLabelBox"/><text style="text-anchor: middle; dominant-baseline: middle; font-size: 12px;" y="133.75401306152344" x="84.81468963623047" id="rel1" class="er relationshipLabel">day</text><rect height="14" width="30.91015625" y="122.46366882324219" x="215.9127197265625" class="er relationshipLabelBox"/><text style="text-anchor: middle; dominant-baseline: middle; font-size: 12px;" y="129.4636688232422" x="231.3677978515625" id="rel2" class="er relationshipLabel">habit</text><rect height="14" width="30.91015625" y="132.14971923828125" x="380.8316650390625" class="er relationshipLabelBox"/><text style="text-anchor: middle; dominant-baseline: middle; font-size: 12px;" y="139.14971923828125" x="396.2867431640625" id="rel3" class="er relationshipLabel">habit</text></svg>